<?xml version="1.0" encoding="utf-8"?>
<!-- Generator: Adobe Illustrator 18.1.1, SVG Export Plug-In . SVG Version: 6.00 Build 0)  -->
<svg version="1.1" id="Camada_1" xmlns="http://www.w3.org/2000/svg" xmlns:xlink="http://www.w3.org/1999/xlink" x="0px" y="0px"
	 viewBox="0 0 200 200" enable-background="new 0 0 200 200" xml:space="preserve">
<g>
	<g>
		<path fill="#FFFFFF" d="M50.4,126.6c1.2-7,5.2-13.2,11.3-17c3.7,3,8.3,4.7,13.1,4.7s9.4-1.6,13.1-4.7c6,3.8,10.1,9.9,11.3,17H50.4
			z"/>
		<path d="M61.8,113.1c3.8,2.6,8.4,4,13.1,4s9.2-1.4,13.1-4c3.7,2.7,6.4,6.5,7.7,10.9H53.9C55.3,119.6,58.1,115.8,61.8,113.1
			 M87.4,106.3c-3.3,3.3-7.7,5.2-12.6,5.2s-9.5-2-12.6-5.2c-7.7,4-13.3,11.6-14.5,20.8c-0.1,0.5,0.1,1.1,0.4,1.5
			c0.4,0.4,1.1,0.8,1.7,0.8h49.9c0.7,0,1.3-0.2,1.7-0.8c0.3-0.4,0.5-1,0.4-1.5C100.7,118,95.2,110.3,87.4,106.3L87.4,106.3z"/>
	</g>
	<g>
		<path fill="#FFFFFF" d="M74.8,102.7c-3.2,0-6.2-1.2-8.5-3.3c-0.2-0.2-0.5-0.4-0.8-0.8c-0.2-0.2-0.4-0.5-0.7-0.8
			c-1.8-2.3-2.8-5.1-2.8-8.1c0-7.1,5.8-12.8,12.8-12.8s12.8,5.8,12.8,12.8c0,2.9-1,5.8-2.8,8.1c-0.2,0.2-0.4,0.5-0.7,0.8
			s-0.5,0.5-0.8,0.8C80.9,101.5,78,102.7,74.8,102.7z"/>
		<path d="M74.8,79.8c5.5,0,10.1,4.6,10.1,10.1c0,2.3-0.8,4.5-2.3,6.3c-0.2,0.2-0.3,0.4-0.5,0.7s-0.4,0.4-0.7,0.5
			c-1.8,1.6-4.2,2.6-6.7,2.6c-2.5,0-4.9-0.9-6.7-2.6c-0.2-0.2-0.4-0.4-0.7-0.7s-0.3-0.3-0.5-0.5c-1.5-1.8-2.3-4-2.3-6.3
			C64.7,84.3,69.3,79.8,74.8,79.8 M74.8,74.3c-8.6,0-15.6,7-15.6,15.6c0,3.7,1.3,7.1,3.5,9.8c0.2,0.3,0.5,0.7,0.9,1s0.5,0.5,0.9,0.9
			c2.7,2.5,6.4,3.9,10.3,3.9s7.6-1.5,10.3-3.9c0.3-0.3,0.7-0.5,0.9-0.9c0.3-0.3,0.5-0.7,0.9-1c2.2-2.6,3.5-6.1,3.5-9.8
			C90.4,81.3,83.4,74.3,74.8,74.3L74.8,74.3z"/>
	</g>
</g>
<g>
	<g>
		<path fill="#FFFFFF" d="M99.1,126.6c1.2-7,5.2-13.2,11.3-17c3.7,3,8.3,4.7,13.1,4.7c4.8,0,9.4-1.6,13.1-4.7
			c6,3.8,10.1,9.9,11.3,17H99.1z"/>
		<path d="M110.3,113.1c3.8,2.6,8.4,4,13.1,4c4.7,0,9.2-1.4,13.1-4c3.7,2.7,6.4,6.5,7.7,10.9h-41.7
			C103.9,119.6,106.6,115.8,110.3,113.1 M136.1,106.3c-3.3,3.3-7.7,5.2-12.6,5.2c-4.9,0-9.5-2-12.6-5.2c-7.7,4-13.3,11.6-14.5,20.8
			c-0.1,0.5,0.1,1.1,0.4,1.5c0.4,0.4,1.1,0.8,1.7,0.8h49.9c0.7,0,1.3-0.2,1.7-0.8c0.3-0.4,0.5-1,0.4-1.5
			C149.4,118,143.7,110.3,136.1,106.3L136.1,106.3z"/>
	</g>
	<g>
		<path fill="#FFFFFF" d="M123.4,102.7c-3.2,0-6.2-1.2-8.5-3.3c-0.2-0.2-0.5-0.4-0.8-0.8c-0.2-0.2-0.4-0.5-0.7-0.8
			c-1.8-2.3-2.8-5.1-2.8-8.1c0-7.1,5.8-12.8,12.8-12.8c7.1,0,12.8,5.8,12.8,12.8c0,2.9-1,5.8-2.8,8.1c-0.2,0.2-0.4,0.5-0.7,0.8
			c-0.2,0.2-0.5,0.5-0.8,0.8C129.6,101.5,126.5,102.7,123.4,102.7z"/>
		<path d="M123.4,79.8c5.5,0,10.1,4.6,10.1,10.1c0,2.3-0.8,4.5-2.3,6.3c-0.2,0.2-0.3,0.4-0.5,0.7s-0.4,0.4-0.7,0.5
			c-1.8,1.6-4.2,2.6-6.7,2.6c-2.5,0-4.9-0.9-6.7-2.6c-0.2-0.2-0.4-0.4-0.7-0.7s-0.3-0.3-0.5-0.5c-1.5-1.8-2.3-4-2.3-6.3
			C113.2,84.3,117.8,79.8,123.4,79.8 M123.4,74.3c-8.6,0-15.6,7-15.6,15.6c0,3.7,1.3,7.1,3.5,9.8c0.2,0.3,0.5,0.7,0.9,1
			s0.5,0.5,0.9,0.9c2.7,2.5,6.4,3.9,10.3,3.9s7.6-1.5,10.3-3.9c0.3-0.3,0.7-0.5,0.9-0.9c0.3-0.3,0.5-0.7,0.9-1
			c2.2-2.6,3.5-6.1,3.5-9.8C138.9,81.3,132,74.3,123.4,74.3L123.4,74.3z"/>
	</g>
</g>
<g>
	<g>
		<path fill="#FFFFFF" d="M70.9,126.6c1.2-8.2,6-15.2,12.9-19.6c4,3.4,9.1,5.2,14.5,5.2c5.3,0,10.4-1.8,14.5-5.2
			c7,4.4,11.8,11.5,12.9,19.6H70.9z"/>
		<path d="M83.7,110.3c4.2,3,9.4,4.6,14.6,4.6c5.3,0,10.3-1.6,14.6-4.6c4.6,3.4,7.9,8.1,9.5,13.5H74.2
			C75.8,118.5,79.1,113.7,83.7,110.3 M112.5,103.7c-3.6,3.6-8.6,5.9-14.1,5.9c-5.5,0-10.6-2.3-14.1-5.9
			c-8.6,4.6-14.8,12.9-16.1,23.2c-0.1,0.7,0.1,1.2,0.5,1.6c0.4,0.5,1.2,0.9,1.8,0.9h55.7c0.8,0,1.4-0.3,2-0.9
			c0.4-0.4,0.5-1.1,0.5-1.6C127.3,116.7,121.1,108.2,112.5,103.7L112.5,103.7z"/>
	</g>
	<g>
		<path fill="#FFFFFF" d="M98.3,100c-3.6,0-7.1-1.3-9.7-3.7c-0.3-0.2-0.5-0.5-0.9-0.9s-0.5-0.5-0.8-0.9c-2.2-2.6-3.3-5.8-3.3-9.1
			c0-8.2,6.5-14.7,14.6-14.7s14.6,6.5,14.6,14.6c0,3.4-1.1,6.5-3.3,9.1c-0.2,0.3-0.5,0.5-0.8,0.9c-0.3,0.3-0.5,0.5-0.9,0.9
			C105.4,98.6,101.9,100,98.3,100z"/>
		<path d="M98.3,73.5c6.5,0,11.9,5.3,11.9,11.9c0,2.7-0.9,5.3-2.6,7.4c-0.2,0.2-0.4,0.4-0.7,0.8c-0.2,0.2-0.4,0.4-0.8,0.7
			c-2.2,2-5,3-7.9,3c-2.9,0-5.7-1.1-7.8-3c-0.3-0.2-0.5-0.4-0.8-0.8c-0.2-0.2-0.4-0.4-0.7-0.7c-1.7-2.2-2.6-4.7-2.6-7.4
			C86.5,78.8,91.8,73.5,98.3,73.5 M98.3,68C88.8,68,81,75.7,81,85.3c0,4.1,1.4,7.9,3.8,10.9c0.3,0.3,0.7,0.8,1,1.1s0.7,0.7,1,1
			c3,2.7,7.1,4.5,11.5,4.5s8.5-1.6,11.5-4.5c0.3-0.3,0.7-0.7,1-1s0.7-0.7,1-1.1c2.4-2.9,3.8-6.7,3.8-10.9
			C115.6,75.7,107.9,68,98.3,68L98.3,68z"/>
	</g>
</g>
</svg>
