<?xml version="1.0" encoding="utf-8"?>
<!-- Generator: Adobe Illustrator 18.1.1, SVG Export Plug-In . SVG Version: 6.00 Build 0)  -->
<svg version="1.1" id="Camada_1" xmlns="http://www.w3.org/2000/svg" xmlns:xlink="http://www.w3.org/1999/xlink" x="0px" y="0px"
	 viewBox="0 0 200 200" enable-background="new 0 0 200 200" xml:space="preserve">
<path fill="#FFFFFF" stroke="#000000" stroke-width="5" stroke-miterlimit="10" d="M130.8,118.7l-30.2-15.5c-0.3-0.2-0.7-0.2-1.1,0
	l-30.1,15.9c-0.3,0.2-0.5,0.5-0.5,0.8l0,51.1c0,0.7,0.9,1.2,1.6,0.8L98.6,157c1-0.5,2.2-0.5,3.2,0l27.9,14.5
	c0.7,0.4,1.6-0.1,1.6-0.8l0-51.1C131.4,119.2,131.2,118.9,130.8,118.7z"/>
<circle fill="#FFFFFF" stroke="#000000" stroke-width="5" stroke-miterlimit="10" cx="100" cy="88.5" r="45"/>
<g>
	<path d="M88.2,82.3l-0.6,4.4h3.2l0.6-4.4h3.2L94,86.7h3.5l-0.4,3h-3.6l-0.4,3.5H96l-0.4,3h-2.9l-0.6,4.6H89l0.6-4.6h-3.2l-0.6,4.6
		h-3.1l0.6-4.6h-3.7l0.4-3h3.8l0.4-3.5H81l0.4-3h3.1l0.6-4.4H88.2z M86.8,93.2H90l0.4-3.5h-3.2L86.8,93.2z"/>
	<path d="M116.8,72.2l-3.5,28.5H106l2.5-20.7l-6,0.9l-0.3-5L116.8,72.2z"/>
</g>
</svg>
