<?xml version="1.0" encoding="utf-8"?>
<!-- Generator: Adobe Illustrator 18.1.1, SVG Export Plug-In . SVG Version: 6.00 Build 0)  -->
<svg version="1.1" id="Camada_1" xmlns="http://www.w3.org/2000/svg" xmlns:xlink="http://www.w3.org/1999/xlink" x="0px" y="0px"
	 viewBox="0 0 200 200" enable-background="new 0 0 200 200" xml:space="preserve">
<g>
	<path fill="#1D1D1B" d="M186.2,80.3l11.7-20.9c0.1-0.2,0.1-0.5,0-0.7c-0.1-0.2-0.4-0.3-0.6-0.3h-13c-0.3,0-0.5,0.1-0.6,0.4
		l-6.2,11.1l-6.2-11.1c-0.1-0.2-0.4-0.4-0.6-0.4h-13c-0.3,0-0.5,0.1-0.6,0.3c-0.1,0.2-0.1,0.5,0,0.7l11.7,21l-11.7,20.8
		c-0.1,0.2-0.1,0.5,0,0.7c0.1,0.2,0.4,0.3,0.6,0.3h13c0.3,0,0.5-0.1,0.6-0.3l6.2-11l6.2,11c0.1,0.2,0.4,0.3,0.6,0.3c0,0,0,0,0,0
		h11.3l-69.3,69.3H3.5v-90l48.3-48V50h2.4v-8.3h6.8v-2.4h-6.8v-5.4h8.3v-2c0,0-7.9,0-10.7,0c-0.2,0-0.6,0.1-0.8,0.3L2.2,80.8
		C2.1,80.9,2,81.1,2,81.3v91c0,0.4,0.3,0.7,0.7,0.7h123.8c0.2,0,0.4-0.1,0.5-0.2c0,0,70.7-70.7,70.9-70.9c0.1-0.2,0.1-0.5,0-0.7
		L186.2,80.3z M178,89.1c-0.1-0.2-0.4-0.4-0.6-0.4c-0.3,0-0.5,0.1-0.6,0.3l-6.6,11.7h-11.4l11.3-20.1c0.1-0.2,0.1-0.5,0-0.7
		l-11.3-20.3h11.3l6.7,11.9c0.1,0.2,0.4,0.4,0.6,0.4c0.3,0,0.5-0.1,0.6-0.4l6.6-11.9H196L184.7,80c-0.1,0.2-0.1,0.5,0,0.7l11.3,20.2
		l-11.4,0L178,89.1z"/>
	<path fill="#1D1D1B" d="M126.5,59v33.2c0,5.6,4.8,10.1,10.4,10.1h17.4c0.4,0,0.6-0.2,0.6-0.6V91c0-0.2,0-0.4-0.1-0.5
		c-0.1-0.1-0.3-0.2-0.5-0.2c0,0-9.7,0-11.8,0c-1.1,0-2.2-0.9-2.2-2.3v-2.4h12.1c0.4,0,0.6-0.3,0.6-0.7V74.8c0-0.4-0.2-0.9-0.6-0.9
		h-12.1V70h14.1c0.4,0,0.6-0.2,0.6-0.6V59c0-0.4-0.2-0.7-0.6-0.7h-26.8C127,58.3,126.5,58.6,126.5,59z M127.9,59.8h25.4v8.8h-14.1
		c-0.4,0-0.5,0.4-0.5,0.8v5.4c0,0.4,0.1,0.6,0.5,0.6h12.2v8.8h-12.1c-0.4,0-0.6,0.4-0.6,0.8v3c0,2.3,1.8,3.8,3.6,3.8
		c1.8,0,9.1,0,11,0v9h-16.5c-4.8,0-8.9-3.8-8.9-8.6V59.8z"/>
	<path fill="#1D1D1B" d="M79.5,58.7L64.8,89.4c-0.1,0.2-0.1,0.4,0,0.6l6.4,13.6c0.1,0.3,0.6,0.4,0.6,0.4v0c0.5,0,0.6-0.2,0.8-0.4
		l21.2-44.3c0.1-0.2,0.1-0.5,0-0.7c-0.1-0.2-0.3-0.3-0.6-0.3h-13C79.9,58.3,79.7,58.4,79.5,58.7z M92,59.8l-20,41.8l-5.7-11.9
		l14.4-29.9H92z"/>
	<path fill="#1D1D1B" d="M101.9,102.2h11.8c0.4,0,0.5-0.2,0.5-0.6V70h9.2c0.4,0,0.6-0.2,0.6-0.6V59c0-0.4-0.2-0.7-0.6-0.7H97.3
		c-0.3,0-0.5,0.1-0.7,0.4l-5,10.4c-0.1,0.2-0.1,0.4,0,0.6C91.8,70,92,70,92.3,70h8.8v31.6C101.1,102,101.5,102.2,101.9,102.2z
		 M93.4,68.5l4.3-8.8h24.9v8.8h-8.8c-0.4,0-1,0.5-1,0.9v31.3h-10.3V69.4c0-0.4-0.2-0.9-0.6-0.9H93.4z"/>
	<path fill="#1D1D1B" d="M50.2,58.6c-0.1,0.2-0.1,0.5,0,0.7l12.7,26.4c0.1,0.3,0.2,0.4,0.7,0.4v0c0,0,0.5-0.2,0.6-0.4l6.5-13.6
		c0.1-0.2,0.1-0.4,0-0.6l-6.2-12.8c-0.1-0.3-0.4-0.4-0.7-0.4h-13C50.6,58.3,50.3,58.4,50.2,58.6z M63.3,59.8l5.9,12.1l-5.7,11.9
		L52,59.8H63.3z"/>
	<polygon fill="#1D1D1B" points="80.9,29.1 80.2,27 74.9,28.9 75.5,30.5 	"/>
	<path fill="#1D1D1B" d="M77,50.3c4,0,7.1-2.3,7.1-9.9c0-6.1-2.2-9.1-6.8-9.1c-4.4,0-7.2,3.1-7.2,9.2C70,48.2,73.2,50.3,77,50.3z
		 M77.2,33.7c2.3,0,4,1.5,4,6.8c0,6.1-1.9,7.6-4.2,7.6c-2.5,0-4.1-2-4.1-7.4C72.9,35.3,74.8,33.7,77.2,33.7z"/>
	<path fill="#1D1D1B" d="M96.2,42.2h3.6l3,7.8h2.9l-3.4-8.4c1.5-0.8,3-2.2,3-4.9c0-3.4-2.4-4.7-6-4.7h-6.1V50h2.9V42.2z M96.2,33.9
		h3c2.3,0,3.5,0.8,3.5,3.2c0,2.1-1.5,3.2-3.4,3.2h-3.1V33.9z"/>
	<polygon fill="#1D1D1B" points="117.7,36.2 121.9,48 124,48 128.1,36.3 128.8,50 131.3,50 130.4,31.9 127.4,31.9 123,44.9 
		118.6,31.9 115.4,31.9 114.5,50 117.1,50 	"/>
	<path fill="#1D1D1B" d="M147,50.2c3.4,0,5.2-1.3,5.9-3.3c0.3-0.9,0.4-2.3,0.4-3.3V31.9h-2.9V43c0,1.3,0.1,2.2-0.2,3
		c-0.4,1.2-1.3,1.9-3.2,1.9c-1.6,0-2.7-0.6-3.2-1.9c-0.3-0.7-0.2-1.9-0.2-2.7V31.9h-2.9v11.6c0,1.2,0.2,2.7,0.6,3.7
		C142.1,49.2,144.1,50.2,147,50.2z"/>
	<polygon fill="#1D1D1B" points="173.8,47.6 166,47.6 166,31.9 163.1,31.9 163.1,50 173.8,50 	"/>
	<path fill="#1D1D1B" d="M185.9,45.1h6.2l1.6,4.9h2.7l-5.7-18.1h-3.5L181.7,50h2.7L185.9,45.1z M188.9,33.7l2.6,9h-5.1L188.9,33.7z"
		/>
</g>
</svg>
