<svg xmlns="http://www.w3.org/2000/svg" viewBox="0 0 200 200" enable-background="new 0 0 200 200"><path fill="#fff" d="M50.4 126.6c1.2-7 5.2-13.2 11.3-17 3.7 3 8.3 4.7 13.1 4.7s9.4-1.6 13.1-4.7c6 3.8 10.1 9.9 11.3 17H50.4z"/><path d="M61.8 113.1c3.8 2.6 8.4 4 13.1 4s9.2-1.4 13.1-4c3.7 2.7 6.4 6.5 7.7 10.9H53.9c1.4-4.4 4.2-8.2 7.9-10.9m25.6-6.8c-3.3 3.3-7.7 5.2-12.6 5.2s-9.5-2-12.6-5.2c-7.7 4-13.3 11.6-14.5 20.8-.1.5.1 1.1.4 1.5.4.4 1.1.8 1.7.8h49.9c.7 0 1.3-.2 1.7-.8.3-.4.5-1 .4-1.5-1.1-9.1-6.6-16.8-14.4-20.8z"/><path fill="#fff" d="M74.8 102.7c-3.2 0-6.2-1.2-8.5-3.3-.2-.2-.5-.4-.8-.8-.2-.2-.4-.5-.7-.8-1.8-2.3-2.8-5.1-2.8-8.1 0-7.1 5.8-12.8 12.8-12.8s12.8 5.8 12.8 12.8c0 2.9-1 5.8-2.8 8.1-.2.2-.4.5-.7.8l-.8.8c-2.4 2.1-5.3 3.3-8.5 3.3z"/><path d="M74.8 79.8c5.5 0 10.1 4.6 10.1 10.1 0 2.3-.8 4.5-2.3 6.3-.2.2-.3.4-.5.7s-.4.4-.7.5c-1.8 1.6-4.2 2.6-6.7 2.6s-4.9-.9-6.7-2.6l-.7-.7-.5-.5c-1.5-1.8-2.3-4-2.3-6.3.2-5.6 4.8-10.1 10.3-10.1m0-5.5c-8.6 0-15.6 7-15.6 15.6 0 3.7 1.3 7.1 3.5 9.8.2.3.5.7.9 1s.5.5.9.9c2.7 2.5 6.4 3.9 10.3 3.9s7.6-1.5 10.3-3.9c.3-.3.7-.5.9-.9.3-.3.5-.7.9-1 2.2-2.6 3.5-6.1 3.5-9.8 0-8.6-7-15.6-15.6-15.6z"/><path fill="#fff" d="M99.1 126.6c1.2-7 5.2-13.2 11.3-17 3.7 3 8.3 4.7 13.1 4.7 4.8 0 9.4-1.6 13.1-4.7 6 3.8 10.1 9.9 11.3 17H99.1z"/><path d="M110.3 113.1c3.8 2.6 8.4 4 13.1 4 4.7 0 9.2-1.4 13.1-4 3.7 2.7 6.4 6.5 7.7 10.9h-41.7c1.4-4.4 4.1-8.2 7.8-10.9m25.8-6.8c-3.3 3.3-7.7 5.2-12.6 5.2-4.9 0-9.5-2-12.6-5.2-7.7 4-13.3 11.6-14.5 20.8-.1.5.1 1.1.4 1.5.4.4 1.1.8 1.7.8h49.9c.7 0 1.3-.2 1.7-.8.3-.4.5-1 .4-1.5-1.1-9.1-6.8-16.8-14.4-20.8z"/><path fill="#fff" d="M123.4 102.7c-3.2 0-6.2-1.2-8.5-3.3-.2-.2-.5-.4-.8-.8-.2-.2-.4-.5-.7-.8-1.8-2.3-2.8-5.1-2.8-8.1 0-7.1 5.8-12.8 12.8-12.8 7.1 0 12.8 5.8 12.8 12.8 0 2.9-1 5.8-2.8 8.1-.2.2-.4.5-.7.8l-.8.8c-2.3 2.1-5.4 3.3-8.5 3.3z"/><path d="M123.4 79.8c5.5 0 10.1 4.6 10.1 10.1 0 2.3-.8 4.5-2.3 6.3-.2.2-.3.4-.5.7s-.4.4-.7.5c-1.8 1.6-4.2 2.6-6.7 2.6s-4.9-.9-6.7-2.6l-.7-.7-.5-.5c-1.5-1.8-2.3-4-2.3-6.3.1-5.6 4.7-10.1 10.3-10.1m0-5.5c-8.6 0-15.6 7-15.6 15.6 0 3.7 1.3 7.1 3.5 9.8.2.3.5.7.9 1s.5.5.9.9c2.7 2.5 6.4 3.9 10.3 3.9s7.6-1.5 10.3-3.9c.3-.3.7-.5.9-.9.3-.3.5-.7.9-1 2.2-2.6 3.5-6.1 3.5-9.8-.1-8.6-7-15.6-15.6-15.6z"/><path fill="#fff" d="M70.9 126.6c1.2-8.2 6-15.2 12.9-19.6 4 3.4 9.1 5.2 14.5 5.2 5.3 0 10.4-1.8 14.5-5.2 7 4.4 11.8 11.5 12.9 19.6H70.9z"/><path d="M83.7 110.3c4.2 3 9.4 4.6 14.6 4.6 5.3 0 10.3-1.6 14.6-4.6 4.6 3.4 7.9 8.1 9.5 13.5H74.2c1.6-5.3 4.9-10.1 9.5-13.5m28.8-6.6c-3.6 3.6-8.6 5.9-14.1 5.9s-10.6-2.3-14.1-5.9c-8.6 4.6-14.8 12.9-16.1 23.2-.1.7.1 1.2.5 1.6.4.5 1.2.9 1.8.9h55.7c.8 0 1.4-.3 2-.9.4-.4.5-1.1.5-1.6-1.4-10.2-7.6-18.7-16.2-23.2z"/><path fill="#fff" d="M98.3 100c-3.6 0-7.1-1.3-9.7-3.7-.3-.2-.5-.5-.9-.9s-.5-.5-.8-.9c-2.2-2.6-3.3-5.8-3.3-9.1 0-8.2 6.5-14.7 14.6-14.7s14.6 6.5 14.6 14.6c0 3.4-1.1 6.5-3.3 9.1-.2.3-.5.5-.8.9l-.9.9c-2.4 2.4-5.9 3.8-9.5 3.8z"/><path d="M98.3 73.5c6.5 0 11.9 5.3 11.9 11.9 0 2.7-.9 5.3-2.6 7.4-.2.2-.4.4-.7.8-.2.2-.4.4-.8.7-2.2 2-5 3-7.9 3-2.9 0-5.7-1.1-7.8-3-.3-.2-.5-.4-.8-.8l-.7-.7c-1.7-2.2-2.6-4.7-2.6-7.4.2-6.6 5.5-11.9 12-11.9m0-5.5C88.8 68 81 75.7 81 85.3c0 4.1 1.4 7.9 3.8 10.9.3.3.7.8 1 1.1l1 1c3 2.7 7.1 4.5 11.5 4.5s8.5-1.6 11.5-4.5l1-1s.7-.7 1-1.1c2.4-2.9 3.8-6.7 3.8-10.9 0-9.6-7.7-17.3-17.3-17.3z"/></svg>