<svg xmlns="http://www.w3.org/2000/svg" viewBox="0 0 200 200" enable-background="new 0 0 200 200"><path stroke="#000" stroke-width="5" stroke-miterlimit="10" d="M156 150H44.8V55.9c0-3.3 2.6-5.9 5.9-5.9h99.4c3.3 0 5.9 2.6 5.9 5.9V150z" fill="none"/><circle cx="55.8" cy="59.5" r="2.1"/><circle cx="64.4" cy="59.5" r="2.1"/><circle cx="73.1" cy="59.5" r="2.1"/><path stroke="#000" stroke-width="5" stroke-miterlimit="10" fill="none" d="M43.5 67.6h111.8"/><path stroke="#000" stroke-width="5" stroke-linecap="round" stroke-linejoin="round" stroke-miterlimit="10" fill="none" d="M84.7 59.4h61.2"/><path d="M86.8 94v5.3L69 108.8l17.8 9.4v5.3l-23.2-12V106l23.2-12zM110.3 84.4l-14.7 51.1h-5.5l14.7-51.1h5.5zM137.1 106v5.5l-23.2 12v-5.3l17.9-9.4-17.8-9.5V94l23.1 12z"/></svg>