<svg xmlns="http://www.w3.org/2000/svg" viewBox="0 0 200 200" enable-background="new 0 0 200 200"><g fill="#f71963"><path d="M182.9 102.6c-.4 0-.8-.2-1-.6l-5.6-10.1-5.7 10.1c-.2.4-.6.6-1 .6h-12.8c-.4 0-.8-.2-1-.6-.2-.4-.2-.8 0-1.2L167 80.5 155.6 60c-.2-.4-.2-.8 0-1.2.2-.4.6-.6 1-.6h12.8c.4 0 .8.2 1 .6l5.7 10.2 5.7-10.2c.2-.4.6-.6 1.1-.6h12.8c.4 0 .8.2 1 .6.2.4.2.8 0 1.2l-11.4 20.4 11.4 20.4c.2.4.2.8 0 1.2-.2.4-.6.6-1 .6h-12.8zm-6.7-14.3c.4 0 .8.2 1 .6l6.3 11.3h10.1L183 81.1c-.2-.4-.2-.8 0-1.2l10.7-19.2h-10.1l-6.4 11.5c-.2.4-.6.6-1 .6s-.8-.2-1-.6l-6.4-11.5h-10.1L169.4 80c.2.4.2.8 0 1.2l-10.7 19.1h10.1l6.4-11.3c.2-.5.6-.7 1-.7zM153.4 102.6h-17.1c-5.8 0-10.5-4.7-10.5-10.5V59.5c0-.7.5-1.2 1.2-1.2h26.4c.7 0 1.2.5 1.2 1.2v10.3c0 .7-.5 1.2-1.2 1.2h-13.6v2.9h11.6c.7 0 1.2.5 1.2 1.2v10c0 .7-.5 1.2-1.2 1.2h-11.5v1.8c0 1.1.9 1.8 1.8 1.8h11.7c.3 0 .6.1.8.4.2.2.4.5.4.9v10.4c0 .5-.5 1-1.2 1zm-25.2-41.9v31.5c0 4.4 3.6 8.1 8.1 8.1h15.9v-8h-10.5c-2 0-4.2-1.6-4.2-4.2v-3c0-.7.5-1.2 1.2-1.2h11.5v-7.6h-11.6c-.7 0-1.2-.5-1.2-1.2v-5.4c0-.7.5-1.2 1.2-1.2h13.6v-7.8h-24zM72.4 104.3c-.5 0-.9-.3-1.1-.7l-6.4-13.4c-.2-.3-.2-.7 0-1L79.4 59c.2-.4.6-.7 1.1-.7h12.8c.4 0 .8.2 1 .6.2.3.2.8.1 1.2l-20.9 43.6c-.2.3-.6.6-1.1.6zm-5-14.6l5.1 10.6 19-39.6H81.3l-13.9 29zM113.6 102.6h-11.7c-.7 0-1.2-.5-1.2-1.2V71h-8.3c-.4 0-.8-.2-1-.6-.2-.3-.2-.8-.1-1.2L96.2 59c.2-.4.6-.7 1.1-.7h25.8c.7 0 1.2.5 1.2 1.2v10.3c0 .7-.5 1.2-1.2 1.2h-8.3v30.5c0 .6-.6 1.1-1.2 1.1zm-10.5-2.4h9.3V69.8c0-.7.5-1.2 1.2-1.2h8.3v-7.9H98.1l-3.8 7.9h7.6c.7 0 1.2.5 1.2 1.2v30.4zM64 86.7c-.5 0-.9-.3-1.1-.7L50.5 60c-.2-.4-.2-.8.1-1.2.2-.3.6-.6 1-.6h12.8c.5 0 .9.3 1.1.7l6.1 12.6c.2.3.2.7 0 1L65.1 86c-.2.5-.6.7-1.1.7zm-10.5-26l10.5 22 5.1-10.6-5.5-11.4H53.5z"/></g><path d="M63 32.4v2.2h-7.9V40h6.6v2.2h-6.6v8.1h-2.7V32.4H63zM70.5 41.1c0-6 2.8-9.1 7.1-9.1 4.6 0 6.7 2.9 6.7 8.9 0 7.4-3 9.7-6.9 9.7-3.8 0-6.9-2-6.9-9.5zm7-6.8c-2.3 0-4.2 1.6-4.2 6.8 0 5.4 1.6 7.3 4.1 7.3 2.3 0 4.1-1.4 4.1-7.4 0-5.2-1.7-6.7-4-6.7zm3-6.6l.6 2.1-5.3 1.4-.5-1.6 5.2-1.9zM96.2 50.3h-2.7V32.4h5.8c3.5 0 5.9 1.4 5.9 4.7 0 2.7-1.5 4.1-3 4.9l3.3 8.2h-2.9l-3-7.6H96v7.7zm3.1-9.7c1.8 0 3.3-1 3.3-3 0-2.3-1.2-3-3.4-3h-3v6.1h3.1zM130 32.4l.9 17.9h-2.5l-.6-13.4-4.1 11.7h-2l-4.1-11.7-.7 13.5h-2.5l.9-17.9h3.1l4.3 12.8 4.3-12.8h3zM142.8 43.8c0 .8 0 1.9.3 2.6.5 1.2 1.6 1.8 3.2 1.8 1.9 0 2.8-.6 3.2-1.8.2-.8.3-1.6.3-2.9V32.4h2.7V44c0 1-.1 2.3-.4 3.2-.7 2-2.5 3.3-5.8 3.3-2.9 0-4.8-1-5.6-2.9-.5-1-.6-2.5-.6-3.7V32.4h2.7v11.4zM162.4 32.4h2.7v15.7h7.6v2.2h-10.3V32.4zM180.5 50.3l5.4-17.9h3.4l5.6 17.9h-2.7l-1.5-4.9h-6.1l-1.5 4.9h-2.6zm4.6-6.9h5l-2.5-8.8-2.5 8.8zM126.6 172.3H4.2c-.7 0-1.2-.5-1.2-1.2V81.4c0-.3.1-.6.4-.9l48-47.9c.2-.2.5-.4.8-.4h5.6c.7 0-5.1 2.4-5.1 2.4L5.4 81.9v87.9h120.7l68.9-69.1c.5-.5 1.2-.5 1.7 0s.5 1.2 0 1.7l-69.2 69.4c-.3.3-.6.5-.9.5z"/></svg>