<svg xmlns="http://www.w3.org/2000/svg" viewBox="0 0 200 200" enable-background="new 0 0 200 200"><path fill="#fff" stroke="#000" stroke-width="5" stroke-miterlimit="10" d="M130.8 118.7l-30.2-15.5c-.3-.2-.7-.2-1.1 0l-30.1 15.9c-.3.2-.5.5-.5.8V171c0 .7.9 1.2 1.6.8L98.6 157c1-.5 2.2-.5 3.2 0l27.9 14.5c.7.4 1.6-.1 1.6-.8v-51.1c.1-.4-.1-.7-.5-.9z"/><circle fill="#fff" stroke="#000" stroke-width="5" stroke-miterlimit="10" cx="100" cy="88.5" r="45"/><path d="M88.2 82.3l-.6 4.4h3.2l.6-4.4h3.2l-.6 4.4h3.5l-.4 3h-3.6l-.4 3.5H96l-.4 3h-2.9l-.6 4.6H89l.6-4.6h-3.2l-.6 4.6h-3.1l.6-4.6h-3.7l.4-3h3.8l.4-3.5H81l.4-3h3.1l.6-4.4h3.1zm-1.4 10.9H90l.4-3.5h-3.2l-.4 3.5zM116.8 72.2l-3.5 28.5H106l2.5-20.7-6 .9-.3-5 14.6-3.7z"/></svg>