<?xml version="1.0" encoding="utf-8"?>
<!-- Generator: Adobe Illustrator 18.1.1, SVG Export Plug-In . SVG Version: 6.00 Build 0)  -->
<svg version="1.1" id="Camada_1" xmlns="http://www.w3.org/2000/svg" xmlns:xlink="http://www.w3.org/1999/xlink" x="0px" y="0px"
	 viewBox="0 0 200 200" enable-background="new 0 0 200 200" xml:space="preserve">
<g>
	<g>
		<path fill="#FFFFFF" d="M54.4,124.3c1.1-6.4,4.8-12.1,10.4-15.6c3.4,2.8,7.6,4.3,12,4.3c4.4,0,8.6-1.5,12-4.3
			c5.5,3.5,9.3,9.1,10.4,15.6H54.4z"/>
		<path d="M64.8,111.9c3.5,2.4,7.7,3.7,12,3.7c4.3,0,8.5-1.3,12-3.7c3.4,2.5,5.9,6,7.1,10H57.6C58.9,117.9,61.4,114.4,64.8,111.9
			 M88.4,105.7c-3,3-7.1,4.8-11.6,4.8c-4.5,0-8.7-1.8-11.6-4.8c-7.1,3.7-12.2,10.7-13.3,19.1c-0.1,0.5,0.1,1,0.4,1.4
			c0.4,0.4,1,0.7,1.6,0.7h45.9c0.6,0,1.2-0.2,1.6-0.7c0.3-0.4,0.5-0.9,0.4-1.4C100.6,116.4,95.5,109.4,88.4,105.7L88.4,105.7z"/>
	</g>
	<g>
		<path fill="#FFFFFF" d="M76.8,102.4c-2.9,0-5.7-1.1-7.8-3c-0.2-0.2-0.5-0.4-0.7-0.7c-0.2-0.2-0.4-0.5-0.6-0.7
			c-1.7-2.1-2.6-4.7-2.6-7.4c0-6.5,5.3-11.8,11.8-11.8c6.5,0,11.8,5.3,11.8,11.8c0,2.7-0.9,5.3-2.6,7.4c-0.2,0.2-0.4,0.5-0.6,0.7
			c-0.2,0.2-0.5,0.5-0.7,0.7C82.4,101.3,79.7,102.4,76.8,102.4z"/>
		<path d="M76.8,81.3c5.1,0,9.3,4.2,9.3,9.3c0,2.1-0.7,4.1-2.1,5.8c-0.2,0.2-0.3,0.4-0.5,0.6c-0.2,0.2-0.4,0.4-0.6,0.5
			c-1.7,1.5-3.9,2.4-6.2,2.4c-2.3,0-4.5-0.8-6.2-2.4c-0.2-0.2-0.4-0.4-0.6-0.6c-0.2-0.2-0.3-0.3-0.5-0.5c-1.4-1.7-2.1-3.7-2.1-5.8
			C67.5,85.5,71.7,81.3,76.8,81.3 M76.8,76.3c-7.9,0-14.3,6.4-14.3,14.3c0,3.4,1.2,6.5,3.2,9c0.2,0.3,0.5,0.6,0.8,0.9
			c0.3,0.3,0.5,0.5,0.8,0.8c2.5,2.3,5.9,3.6,9.5,3.6c3.6,0,7-1.4,9.5-3.6c0.3-0.3,0.6-0.5,0.8-0.8c0.3-0.3,0.5-0.6,0.8-0.9
			c2-2.4,3.2-5.6,3.2-9C91.1,82.7,84.7,76.3,76.8,76.3L76.8,76.3z"/>
	</g>
</g>
<g>
	<g>
		<path fill="#FFFFFF" d="M99.1,124.3c1.1-6.4,4.8-12.1,10.4-15.6c3.4,2.8,7.6,4.3,12,4.3s8.6-1.5,12-4.3c5.5,3.5,9.3,9.1,10.4,15.6
			H99.1z"/>
		<path d="M109.4,111.9c3.5,2.4,7.7,3.7,12,3.7c4.3,0,8.5-1.3,12-3.7c3.4,2.5,5.9,6,7.1,10h-38.3C103.5,117.9,106,114.4,109.4,111.9
			 M133.1,105.7c-3,3-7.1,4.8-11.6,4.8c-4.5,0-8.7-1.8-11.6-4.8c-7.1,3.7-12.2,10.7-13.3,19.1c-0.1,0.5,0.1,1,0.4,1.4
			c0.4,0.4,1,0.7,1.6,0.7h45.9c0.6,0,1.2-0.2,1.6-0.7c0.3-0.4,0.5-0.9,0.4-1.4C145.3,116.4,140.1,109.4,133.1,105.7L133.1,105.7z"/>
	</g>
	<g>
		<path fill="#FFFFFF" d="M121.4,102.4c-2.9,0-5.7-1.1-7.8-3c-0.2-0.2-0.5-0.4-0.7-0.7c-0.2-0.2-0.4-0.5-0.6-0.7
			c-1.7-2.1-2.6-4.7-2.6-7.4c0-6.5,5.3-11.8,11.8-11.8c6.5,0,11.8,5.3,11.8,11.8c0,2.7-0.9,5.3-2.6,7.4c-0.2,0.2-0.4,0.5-0.6,0.7
			c-0.2,0.2-0.5,0.5-0.7,0.7C127.1,101.3,124.3,102.4,121.4,102.4z"/>
		<path d="M121.4,81.3c5.1,0,9.3,4.2,9.3,9.3c0,2.1-0.7,4.1-2.1,5.8c-0.2,0.2-0.3,0.4-0.5,0.6c-0.2,0.2-0.4,0.4-0.6,0.5
			c-1.7,1.5-3.9,2.4-6.2,2.4c-2.3,0-4.5-0.8-6.2-2.4c-0.2-0.2-0.4-0.4-0.6-0.6c-0.2-0.2-0.3-0.3-0.5-0.5c-1.4-1.7-2.1-3.7-2.1-5.8
			C112.1,85.5,116.3,81.3,121.4,81.3 M121.4,76.3c-7.9,0-14.3,6.4-14.3,14.3c0,3.4,1.2,6.5,3.2,9c0.2,0.3,0.5,0.6,0.8,0.9
			c0.3,0.3,0.5,0.5,0.8,0.8c2.5,2.3,5.9,3.6,9.5,3.6c3.6,0,7-1.4,9.5-3.6c0.3-0.3,0.6-0.5,0.8-0.8c0.3-0.3,0.5-0.6,0.8-0.9
			c2-2.4,3.2-5.6,3.2-9C135.7,82.7,129.3,76.3,121.4,76.3L121.4,76.3z"/>
	</g>
</g>
<g>
	<g>
		<path fill="#FFFFFF" d="M73.2,124.3c1.1-7.5,5.5-14,11.9-18c3.7,3.1,8.4,4.8,13.3,4.8c4.9,0,9.6-1.7,13.3-4.8
			c6.4,4,10.8,10.6,11.9,18H73.2z"/>
		<path d="M85,109.4c3.9,2.8,8.6,4.2,13.4,4.2c4.9,0,9.5-1.5,13.4-4.2c4.2,3.1,7.3,7.4,8.7,12.4H76.2
			C77.7,116.9,80.7,112.5,85,109.4 M111.4,103.3c-3.3,3.3-7.9,5.4-13,5.4c-5.1,0-9.7-2.1-13-5.4c-7.9,4.2-13.6,11.9-14.8,21.3
			c-0.1,0.6,0.1,1.1,0.5,1.5c0.4,0.5,1.1,0.8,1.7,0.8H124c0.7,0,1.3-0.3,1.8-0.8c0.4-0.4,0.5-1,0.5-1.5
			C125,115.2,119.3,107.4,111.4,103.3L111.4,103.3z"/>
	</g>
	<g>
		<path fill="#FFFFFF" d="M98.4,99.9c-3.3,0-6.5-1.2-8.9-3.4c-0.3-0.2-0.5-0.5-0.8-0.8c-0.3-0.3-0.5-0.5-0.7-0.8c-2-2.4-3-5.3-3-8.4
			C85,79,91,73,98.4,73c7.4,0,13.4,6,13.4,13.4c0,3.1-1,6-3,8.4c-0.2,0.3-0.5,0.5-0.7,0.8c-0.3,0.3-0.5,0.5-0.8,0.8
			C104.9,98.6,101.7,99.9,98.4,99.9z"/>
		<path d="M98.4,75.5c6,0,10.9,4.9,10.9,10.9c0,2.5-0.8,4.9-2.4,6.8c-0.2,0.2-0.4,0.4-0.6,0.7c-0.2,0.2-0.4,0.4-0.7,0.6
			c-2,1.8-4.6,2.8-7.3,2.8c-2.7,0-5.2-1-7.2-2.8c-0.3-0.2-0.5-0.4-0.7-0.7c-0.2-0.2-0.4-0.4-0.6-0.6c-1.6-2-2.4-4.3-2.4-6.8
			C87.5,80.4,92.4,75.5,98.4,75.5 M98.4,70.5c-8.8,0-15.9,7.1-15.9,15.9c0,3.8,1.3,7.3,3.5,10c0.3,0.3,0.6,0.7,0.9,1
			c0.3,0.3,0.6,0.6,0.9,0.9c2.8,2.5,6.5,4.1,10.6,4.1c4.1,0,7.8-1.5,10.6-4.1c0.3-0.3,0.6-0.6,0.9-0.9c0.3-0.3,0.6-0.6,0.9-1
			c2.2-2.7,3.5-6.2,3.5-10C114.3,77.6,107.2,70.5,98.4,70.5L98.4,70.5z"/>
	</g>
</g>
</svg>
