<?xml version="1.0" encoding="utf-8"?>
<!-- Generator: Adobe Illustrator 18.1.1, SVG Export Plug-In . SVG Version: 6.00 Build 0)  -->
<svg version="1.1" id="Camada_1" xmlns="http://www.w3.org/2000/svg" xmlns:xlink="http://www.w3.org/1999/xlink" x="0px" y="0px"
	 viewBox="0 0 200 200" enable-background="new 0 0 200 200" xml:space="preserve">
<path fill="none" stroke="#000000" stroke-width="5" stroke-miterlimit="10" d="M156,150H44.8V55.9c0-3.3,2.6-5.9,5.9-5.9h99.4
	c3.3,0,5.9,2.6,5.9,5.9V150z"/>
<circle cx="55.8" cy="59.5" r="2.1"/>
<circle cx="64.4" cy="59.5" r="2.1"/>
<circle cx="73.1" cy="59.5" r="2.1"/>
<line fill="none" stroke="#000000" stroke-width="5" stroke-miterlimit="10" x1="43.5" y1="67.6" x2="155.3" y2="67.6"/>
<line fill="none" stroke="#000000" stroke-width="5" stroke-linecap="round" stroke-linejoin="round" stroke-miterlimit="10" x1="84.7" y1="59.4" x2="145.9" y2="59.4"/>
<g>
	<path d="M86.8,94v5.3L69,108.8l17.8,9.4v5.3l-23.2-12V106L86.8,94z"/>
	<path d="M110.3,84.4l-14.7,51.1h-5.5l14.7-51.1H110.3z"/>
	<path d="M137.1,106v5.5l-23.2,12v-5.3l17.9-9.4L114,99.3V94L137.1,106z"/>
</g>
</svg>
