<?xml version="1.0" encoding="utf-8"?>
<!-- Generator: Adobe Illustrator 18.1.1, SVG Export Plug-In . SVG Version: 6.00 Build 0)  -->
<svg version="1.1" id="Camada_1" xmlns="http://www.w3.org/2000/svg" xmlns:xlink="http://www.w3.org/1999/xlink" x="0px" y="0px"
	 viewBox="0 0 200 200" enable-background="new 0 0 200 200" xml:space="preserve">
<g>
	<g fill="#f71963">
		<g>
			<path d="M182.9,102.6c-0.4,0-0.8-0.2-1-0.6l-5.6-10.1l-5.7,10.1c-0.2,0.4-0.6,0.6-1,0.6h-12.8c-0.4,0-0.8-0.2-1-0.6
				c-0.2-0.4-0.2-0.8,0-1.2L167,80.5l-11.4-20.5c-0.2-0.4-0.2-0.8,0-1.2c0.2-0.4,0.6-0.6,1-0.6h12.8c0.4,0,0.8,0.2,1,0.6l5.7,10.2
				l5.7-10.2c0.2-0.4,0.6-0.6,1.1-0.6h12.8c0.4,0,0.8,0.2,1,0.6c0.2,0.4,0.2,0.8,0,1.2l-11.4,20.4l11.4,20.4c0.2,0.4,0.2,0.8,0,1.2
				c-0.2,0.4-0.6,0.6-1,0.6L182.9,102.6C182.9,102.6,182.9,102.6,182.9,102.6z M176.2,88.3C176.2,88.3,176.2,88.3,176.2,88.3
				c0.4,0,0.8,0.2,1,0.6l6.3,11.3l10.1,0L183,81.1c-0.2-0.4-0.2-0.8,0-1.2l10.7-19.2h-10.1l-6.4,11.5c-0.2,0.4-0.6,0.6-1,0.6
				c0,0,0,0,0,0c-0.4,0-0.8-0.2-1-0.6l-6.4-11.5h-10.1L169.4,80c0.2,0.4,0.2,0.8,0,1.2l-10.7,19.1h10.1l6.4-11.3
				C175.4,88.5,175.8,88.3,176.2,88.3z"/>
			<path d="M153.4,102.6h-17.1c-5.8,0-10.5-4.7-10.5-10.5V59.5c0-0.7,0.5-1.2,1.2-1.2h26.4c0.7,0,1.2,0.5,1.2,1.2v10.3
				c0,0.7-0.5,1.2-1.2,1.2h-13.6v2.9h11.6c0.7,0,1.2,0.5,1.2,1.2v10c0,0.7-0.5,1.2-1.2,1.2h-11.5v1.8c0,1.1,0.9,1.8,1.8,1.8
				c2.1,0,11.7,0,11.7,0c0,0,0,0,0,0c0.3,0,0.6,0.1,0.8,0.4c0.2,0.2,0.4,0.5,0.4,0.9v10.4C154.6,102.1,154.1,102.6,153.4,102.6z
				 M128.2,60.7v31.5c0,4.4,3.6,8.1,8.1,8.1h15.9v-8c-2.6,0-8.9,0-10.5,0c-2,0-4.2-1.6-4.2-4.2v-3c0-0.7,0.5-1.2,1.2-1.2h11.5v-7.6
				h-11.6c-0.7,0-1.2-0.5-1.2-1.2v-5.4c0-0.7,0.5-1.2,1.2-1.2h13.6v-7.8H128.2z"/>
			<path d="M72.4,104.3C72.4,104.3,72.4,104.3,72.4,104.3c-0.5,0-0.9-0.3-1.1-0.7l-6.4-13.4c-0.2-0.3-0.2-0.7,0-1L79.4,59
				c0.2-0.4,0.6-0.7,1.1-0.7h12.8c0.4,0,0.8,0.2,1,0.6c0.2,0.3,0.2,0.8,0.1,1.2l-20.9,43.6C73.3,104,72.9,104.3,72.4,104.3z
				 M67.4,89.7l5.1,10.6l19-39.6H81.3L67.4,89.7z"/>
			<path d="M113.6,102.6h-11.7c-0.7,0-1.2-0.5-1.2-1.2V71h-8.3c-0.4,0-0.8-0.2-1-0.6c-0.2-0.3-0.2-0.8-0.1-1.2L96.2,59
				c0.2-0.4,0.6-0.7,1.1-0.7h25.8c0.7,0,1.2,0.5,1.2,1.2v10.3c0,0.7-0.5,1.2-1.2,1.2h-8.3v30.5C114.8,102.1,114.2,102.6,113.6,102.6
				z M103.1,100.2h9.3V69.8c0-0.7,0.5-1.2,1.2-1.2h8.3v-7.9H98.1l-3.8,7.9h7.6c0.7,0,1.2,0.5,1.2,1.2V100.2z"/>
		</g>
		<path d="M64,86.7L64,86.7c-0.5,0-0.9-0.3-1.1-0.7L50.5,60c-0.2-0.4-0.2-0.8,0.1-1.2c0.2-0.3,0.6-0.6,1-0.6h12.8
			c0.5,0,0.9,0.3,1.1,0.7l6.1,12.6c0.2,0.3,0.2,0.7,0,1L65.1,86C64.9,86.5,64.5,86.7,64,86.7z M53.5,60.7L64,82.7l5.1-10.6
			l-5.5-11.4H53.5z"/>
	</g>
	<g>
		<path d="M63,32.4v2.2h-7.9V40h6.6v2.2h-6.6v8.1h-2.7V32.4H63z"/>
		<path d="M70.5,41.1c0-6,2.8-9.1,7.1-9.1c4.6,0,6.7,2.9,6.7,8.9c0,7.4-3,9.7-6.9,9.7C73.6,50.6,70.5,48.6,70.5,41.1z M77.5,34.3
			c-2.3,0-4.2,1.6-4.2,6.8c0,5.4,1.6,7.3,4.1,7.3c2.3,0,4.1-1.4,4.1-7.4C81.5,35.8,79.8,34.3,77.5,34.3z M80.5,27.7l0.6,2.1
			l-5.3,1.4l-0.5-1.6L80.5,27.7z"/>
		<path d="M96.2,50.3h-2.7V32.4h5.8c3.5,0,5.9,1.4,5.9,4.7c0,2.7-1.5,4.1-3,4.9l3.3,8.2h-2.9l-3-7.6h-3.6V50.3z M99.3,40.6
			c1.8,0,3.3-1,3.3-3c0-2.3-1.2-3-3.4-3h-3v6.1H99.3z"/>
		<path d="M130,32.4l0.9,17.9h-2.5l-0.6-13.4l-4.1,11.7h-2l-4.1-11.7l-0.7,13.5h-2.5l0.9-17.9h3.1l4.3,12.8l4.3-12.8H130z"/>
		<path d="M142.8,43.8c0,0.8,0,1.9,0.3,2.6c0.5,1.2,1.6,1.8,3.2,1.8c1.9,0,2.8-0.6,3.2-1.8c0.2-0.8,0.3-1.6,0.3-2.9V32.4h2.7V44
			c0,1-0.1,2.3-0.4,3.2c-0.7,2-2.5,3.3-5.8,3.3c-2.9,0-4.8-1-5.6-2.9c-0.5-1-0.6-2.5-0.6-3.7V32.4h2.7V43.8z"/>
		<path d="M162.4,32.4h2.7v15.7h7.6v2.2h-10.3V32.4z"/>
		<path d="M180.5,50.3l5.4-17.9h3.4l5.6,17.9h-2.7l-1.5-4.9h-6.1l-1.5,4.9H180.5z M185.1,43.4h5l-2.5-8.8L185.1,43.4z"/>
	</g>
	<path d="M126.6,172.3H4.2c-0.7,0-1.2-0.5-1.2-1.2V81.4c0-0.3,0.1-0.6,0.4-0.9l48-47.9c0.2-0.2,0.5-0.4,0.8-0.4h5.6
		c0.7,0-5.1,2.4-5.1,2.4L5.4,81.9v87.9h120.7l68.9-69.1c0.5-0.5,1.2-0.5,1.7,0c0.5,0.5,0.5,1.2,0,1.7l-69.2,69.4
		C127.2,172.1,126.9,172.3,126.6,172.3z"/>
</g>
</svg>
